
<svg width="1018" height="308" viewBox="0 0 1018 308" fill="none" xmlns="http://www.w3.org/2000/svg">
<circle cx="61" cy="130" r="53" fill="#1A1B1B"/>
<path d="M93.009 105.609C80.5064 108.87 44.2555 113.53 14.399 129.989L21.1389 142.039C21.9571 146.521 32.2744 153.151 66.998 143.822C101.722 134.494 103.462 123.838 99.992 119.677L93.009 105.609Z" fill="white" stroke="black"/>
<ellipse cx="43.5" cy="142" rx="8.5" ry="8" fill="#1A1B1B"/>
<circle cx="73.5" cy="131.5" r="8.5" fill="#1A1B1B"/>
<path d="M120.853 72.1343C103.08 80.5316 102.434 96.918 103.194 101C104.713 99.2506 109.777 99.6245 112.023 93.7107C114.017 88.4623 120.736 87.2691 126.549 85.5466C137.372 82.3393 161.392 84.8663 165 85.5466L157.025 75.3415L165 66.5943C161.962 66.3028 138.626 63.737 120.853 72.1343Z" fill="#1A1B1B" stroke="#1A1B1B"/>
<path d="M128.122 104.775C120.571 107.02 107.774 102.052 102.461 100.042C107.611 103.731 113.481 110.637 124.474 114.491C129.927 116.404 140.063 115.72 144.575 114.644L140.498 108.09L142.617 99.9976C141.026 101.157 136.799 102.195 128.122 104.775Z" fill="#1A1B1B" stroke="#1A1B1B"/>
<path d="M1 192.374L19.0178 182.697L29.8856 176.72C34.8429 178.712 46.9594 181.998 55.6252 182.697C66.2071 183.551 76.503 180.42 84.5108 176.72C86.5128 175.795 94.2347 172.166 102.815 165.904C108.294 161.905 117.591 160.686 121.976 161.066L136.562 176.72C138.183 180.61 139.479 190.097 131.7 196.928L146 236.207C143.712 238.199 136.562 241.33 126.552 244.746C114.402 248.891 96.4869 251.062 84.5108 252.146C68.7811 253.569 69.925 253.845 61.0592 247.876C51.3353 241.33 39.3235 235.068 39.3235 221.691C39.3235 210.989 41.8021 200.723 43.0414 196.928C42.4694 196.928 36.7495 200.913 29.8856 201.767C23.9959 202.5 8.4359 202.906 1 201.767V192.374Z" fill="#1A1B1B"/>
<path d="M131.7 196.928C139.479 190.097 138.183 180.61 136.562 176.72L121.976 161.066C117.591 160.686 108.294 161.905 102.815 165.904C94.2347 172.166 86.5128 175.795 84.5108 176.72C76.503 180.42 66.2071 183.551 55.6252 182.697C46.9594 181.998 34.8429 178.712 29.8856 176.72L19.0178 182.697L1 192.374V201.767C8.4359 202.906 23.9959 202.5 29.8856 201.767C36.7495 200.913 42.4694 196.928 43.0414 196.928C41.8021 200.723 39.3235 210.989 39.3235 221.691C39.3235 235.068 51.3353 241.33 61.0592 247.876C69.925 253.845 68.7811 253.569 84.5108 252.146C96.4869 251.062 114.402 248.891 126.552 244.746C136.562 241.33 143.712 238.199 146 236.207L131.7 196.928ZM131.7 196.928C126.57 201.434 119.582 202.637 113.968 202.581M106.819 201.767L110.536 188.105M106.819 201.767C108.539 202.187 111.07 202.552 113.968 202.581M106.819 201.767L113.968 202.581" stroke="#F1F1F1" stroke-width="1.5"/>
<path d="M218.763 77.5H267.903L286.263 154.18C288.603 163.54 290.763 172.99 292.743 182.53C293.643 185.95 294.543 189.91 295.443 194.41C296.523 198.91 297.783 204.04 299.223 209.8H300.303C301.923 203.5 303.273 197.83 304.353 192.79C305.613 187.57 306.693 183.07 307.593 179.29C309.213 171.01 311.103 162.64 313.263 154.18L331.083 77.5H378.603L326.763 253H270.603L218.763 77.5ZM408.915 77.5H455.355V253H408.915V77.5ZM507.845 77.5H559.685C587.765 77.5 609.815 84.52 625.835 98.56C641.855 112.6 649.865 134.56 649.865 164.44C649.865 194.32 641.945 216.55 626.105 231.13C610.445 245.71 589.205 253 562.385 253H507.845V77.5ZM556.985 215.74C571.205 215.74 582.275 211.96 590.195 204.4C598.295 196.84 602.345 183.52 602.345 164.44C602.345 145.54 598.385 132.58 590.465 125.56C582.545 118.36 571.385 114.76 556.985 114.76H554.285V215.74H556.985ZM694.577 77.5H746.417C774.497 77.5 796.547 84.52 812.567 98.56C828.587 112.6 836.597 134.56 836.597 164.44C836.597 194.32 828.677 216.55 812.837 231.13C797.177 245.71 775.937 253 749.117 253H694.577V77.5ZM743.717 215.74C757.937 215.74 769.007 211.96 776.927 204.4C785.027 196.84 789.077 183.52 789.077 164.44C789.077 145.54 785.117 132.58 777.197 125.56C769.277 118.36 758.117 114.76 743.717 114.76H741.017V215.74H743.717ZM936.93 256.24C925.41 256.24 913.71 254.17 901.83 250.03C890.13 245.71 879.69 239.41 870.51 231.13L896.97 199.27C903.27 204.31 910.11 208.45 917.49 211.69C924.87 214.75 931.71 216.28 938.01 216.28C951.33 216.28 957.99 212.14 957.99 203.86C957.99 201.16 957.09 199 955.29 197.38C953.49 195.58 950.7 193.87 946.92 192.25C943.14 190.45 938.91 188.65 934.23 186.85L912.36 177.67C901.92 173.53 893.37 167.32 886.71 159.04C880.23 150.76 876.99 140.68 876.99 128.8C876.99 118.9 879.78 109.81 885.36 101.53C890.94 93.07 898.68 86.41 908.58 81.55C918.66 76.69 929.91 74.26 942.33 74.26C952.77 74.26 963.12 76.24 973.38 80.2C983.82 84.16 992.91 90.01 1000.65 97.75L977.43 126.91C971.31 122.59 965.46 119.44 959.88 117.46C954.48 115.3 948.63 114.22 942.33 114.22C936.57 114.22 932.07 115.3 928.83 117.46C925.59 119.44 923.97 122.32 923.97 126.1C923.97 128.8 924.96 131.05 926.94 132.85C928.92 134.65 931.98 136.45 936.12 138.25C940.26 140.05 944.85 141.85 949.89 143.65L971.22 152.02C994.08 161.02 1005.51 177.04 1005.51 200.08C1005.51 210.16 1002.72 219.52 997.14 228.16C991.74 236.62 983.82 243.46 973.38 248.68C963.12 253.72 950.97 256.24 936.93 256.24Z" fill="#1A1B1B"/>
<path d="M19 202L13.375 186L1 192.4V200.933L19 202Z" fill="#474747" stroke="#F1F1F1"/>
<rect x="-0.627594" y="-0.342126" width="85.9434" height="9.29561" transform="matrix(0.962325 -0.271902 0.292862 0.956155 13.5552 185.956)" fill="#1A1B1B" stroke="#F1F1F1"/>
<path d="M25.3011 182.801L16.382 194.059L20.7182 192.834L29.6373 181.576L25.3011 182.801Z" fill="white"/>
<path d="M38.3101 179.124L29.3909 190.382L33.7271 189.157L42.6462 177.899L38.3101 179.124Z" fill="white"/>
<path d="M51.3181 175.449L42.399 186.707L46.7351 185.482L55.6542 174.224L51.3181 175.449Z" fill="white"/>
<path d="M64.3267 171.773L55.4076 183.031L59.7437 181.806L68.6628 170.548L64.3267 171.773Z" fill="white"/>
<path d="M76.7928 168.251L67.8737 179.509L72.2099 178.284L81.129 167.026L76.7928 168.251Z" fill="white"/>
<path d="M89.2593 164.729L80.3402 175.987L84.6763 174.762L93.5954 163.504L89.2593 164.729Z" fill="white"/>
<rect x="-0.5" y="0.5" width="87" height="9.27005" transform="matrix(1 0 0 -1 16 204.426)" fill="#1A1B1B" stroke="#F1F1F1"/>
<path d="M28.04 203.426L16 195.041H20.5867L32.6267 203.426H28.04Z" fill="white"/>
<path d="M41.7998 203.426L29.7598 195.041H34.3464L46.3864 203.426H41.7998Z" fill="white"/>
<path d="M55.5599 203.426L43.5199 195.041H48.1066L60.1466 203.426H55.5599Z" fill="white"/>
<path d="M69.3202 203.426L57.2802 195.041H61.8668L73.9068 203.426H69.3202Z" fill="white"/>
<path d="M82.507 203.426L70.467 195.041H75.0537L87.0937 203.426H82.507Z" fill="white"/>
<path d="M95.6936 203.426L83.6536 195.041H88.2402L100.28 203.426H95.6936Z" fill="white"/>
<rect x="15.5" y="203.5" width="87" height="49" fill="#1A1B1B" stroke="#F1F1F1"/>
<line x1="25" y1="215" x2="94" y2="215" stroke="#F1F1F1" stroke-width="2"/>
<line x1="25" y1="227" x2="94" y2="227" stroke="#F1F1F1" stroke-width="2"/>
<line x1="25" y1="241" x2="94" y2="241" stroke="#F1F1F1" stroke-width="2"/>
<line x1="42" y1="216" x2="42" y2="227" stroke="#F1F1F1" stroke-width="2"/>
<line x1="59" y1="216" x2="59" y2="227" stroke="#F1F1F1" stroke-width="2"/>
<line x1="79" y1="216" x2="79" y2="227" stroke="#F1F1F1" stroke-width="2"/>
<line x1="110.641" y1="188.652" x2="116.993" y2="182.099" stroke="#F1F1F1"/>
<path d="M94 191.111L111 188L107.161 202L94 199.5L94 191.111Z" fill="#474747" stroke="#F1F1F1"/>
</svg>
